<svg xmlns="http://www.w3.org/2000/svg" xmlns:xlink="http://www.w3.org/1999/xlink" version="1.1" x="0px" y="0px" viewBox="0 0 100 125" enable-background="new 0 0 100 100" xml:space="preserve"><path d="M29.131,48.889c-0.053-0.054-0.11-0.096-0.174-0.137c-0.05-0.032-0.098-0.061-0.152-0.083  c-0.058-0.023-0.118-0.038-0.181-0.05c-0.069-0.014-0.136-0.023-0.207-0.023c-0.028,0-0.053-0.011-0.082-0.009  c-0.035,0.003-0.063,0.022-0.097,0.029c-0.067,0.013-0.13,0.031-0.194,0.058c-0.063,0.027-0.12,0.059-0.176,0.098  c-0.029,0.02-0.063,0.026-0.089,0.049c-0.022,0.019-0.032,0.045-0.052,0.066c-0.049,0.049-0.088,0.102-0.126,0.16  c-0.035,0.053-0.066,0.105-0.089,0.163c-0.023,0.057-0.037,0.116-0.05,0.178c-0.014,0.068-0.022,0.135-0.022,0.205  c0,0.028-0.011,0.053-0.009,0.082c0.569,6.194,0.005,12.485,0,12.547c-0.051,0.55,0.354,1.037,0.904,1.088  c0.031,0.003,0.062,0.004,0.092,0.004c0.511,0,0.947-0.39,0.995-0.908c0.02-0.214,0.395-4.389,0.22-9.369  c9.188,15.682-2.021,43.787-2.143,44.088c-0.208,0.512,0.039,1.095,0.551,1.303c0.123,0.05,0.25,0.073,0.375,0.073  c0.395,0,0.769-0.235,0.927-0.624c0.547-1.347,13.249-33.182-0.165-48.941C29.172,48.915,29.148,48.907,29.131,48.889z"/><path d="M71.425,54.537c-0.018-0.008-0.036-0.01-0.054-0.017c-0.066-0.021-0.128-0.053-0.2-0.06  c-0.025-0.002-0.048,0.008-0.074,0.008c-0.087-0.005-0.171,0.01-0.257,0.027c-0.028,0.007-0.058,0.008-0.085,0.017  c-0.154,0.046-0.303,0.117-0.425,0.24c-10.982,11.084-6.838,23.185-3.182,33.86c1.093,3.188,2.124,6.198,2.668,8.978  c0.094,0.477,0.512,0.808,0.98,0.808c0.063,0,0.128-0.006,0.193-0.019c0.542-0.106,0.896-0.632,0.789-1.174  c-0.571-2.913-1.624-5.987-2.738-9.241c-3.234-9.439-6.864-20.054,0.851-29.716c-0.234,5.267,0.171,9.807,0.191,10.03  c0.048,0.519,0.484,0.908,0.995,0.908c0.03,0,0.062-0.001,0.093-0.004c0.55-0.051,0.954-0.538,0.904-1.088  c-0.006-0.063-0.57-6.353,0-12.547C72.117,55.091,71.836,54.692,71.425,54.537z"/><path d="M63.42,35.466c-12.066-6.652-25.547-7.365-34.345-1.811c-5.674,3.581-12.223,11.47-11.202,28.717  c0.031,0.531,0.472,0.941,0.997,0.941c0.02,0,0.04-0.001,0.06-0.002c0.551-0.032,0.972-0.506,0.939-1.057  c-0.762-12.881,2.791-22.186,10.274-26.908c8.19-5.17,20.874-4.435,32.312,1.871c10.967,6.047,17.779,15.663,17.779,25.096  c0,0.553,0.447,1,1,1s1-0.447,1-1C82.233,52.152,75.024,41.865,63.42,35.466z"/><path d="M50,27.747c7.236,0,13.124-5.887,13.124-13.124C63.124,7.387,57.236,1.5,50,1.5S36.876,7.387,36.876,14.623  C36.876,21.859,42.764,27.747,50,27.747z M50,3.5c6.134,0,11.124,4.99,11.124,11.123S56.134,25.747,50,25.747  c-6.133,0-11.124-4.99-11.124-11.124S43.867,3.5,50,3.5z"/><path d="M50.804,92.109c-0.531-0.031-1.006,0.435-1.013,0.986c-0.019,1.396-0.103,2.808-0.25,4.197  c-0.058,0.549,0.34,1.042,0.889,1.1c0.036,0.004,0.071,0.006,0.106,0.006c0.505,0,0.938-0.381,0.993-0.895  c0.154-1.451,0.242-2.925,0.262-4.381C51.798,92.57,51.356,92.117,50.804,92.109z"/><path d="M50.59,88.924c0.029,0,0.059-0.001,0.088-0.004c0.55-0.048,0.957-0.533,0.909-1.083c-0.117-1.338-0.28-2.681-0.499-4.104  c-0.084-0.547-0.592-0.919-1.14-0.837c-0.546,0.084-0.92,0.594-0.836,1.14c0.212,1.382,0.37,2.682,0.483,3.976  C49.64,88.531,50.077,88.924,50.59,88.924z"/><path d="M49.443,80.147c0.541-0.112,0.889-0.642,0.777-1.182c-0.306-1.479-0.635-2.938-0.967-4.388  c-0.123-0.538-0.659-0.876-1.198-0.751c-0.539,0.123-0.875,0.659-0.751,1.198c0.329,1.437,0.655,2.882,0.958,4.345  c0.098,0.473,0.514,0.798,0.979,0.798C49.306,80.168,49.375,80.161,49.443,80.147z"/><path d="M48.136,69.644c-0.387-1.786-0.675-3.264-0.907-4.65c-0.091-0.545-0.601-0.916-1.151-0.821  c-0.544,0.091-0.912,0.606-0.821,1.151c0.237,1.418,0.531,2.926,0.924,4.744c0.102,0.468,0.516,0.788,0.977,0.788  c0.07,0,0.141-0.007,0.212-0.022C47.91,70.716,48.253,70.184,48.136,69.644z"/><path d="M45.713,61.346c0.55-0.045,0.96-0.528,0.915-1.078c-0.133-1.636-0.175-3.169-0.127-4.689  c0.018-0.552-0.416-1.014-0.968-1.03c-0.543-0.061-1.014,0.415-1.031,0.968c-0.05,1.596-0.007,3.203,0.133,4.914  c0.042,0.523,0.48,0.919,0.996,0.919C45.658,61.349,45.686,61.348,45.713,61.346z"/><path d="M46.111,45.703c-0.465,1.534-0.834,3.101-1.097,4.656c-0.092,0.545,0.274,1.061,0.819,1.153  c0.057,0.009,0.113,0.014,0.168,0.014c0.479,0,0.902-0.345,0.985-0.833c0.25-1.473,0.599-2.957,1.04-4.41  c0.16-0.528-0.139-1.087-0.667-1.247C46.83,44.876,46.271,45.175,46.111,45.703z"/><path d="M48.127,42.923c0.126,0.054,0.258,0.079,0.388,0.079c0.39,0,0.761-0.23,0.922-0.612c0.43-1.02,0.919-2.063,1.453-3.098  c0.252-0.491,0.06-1.094-0.431-1.347c-0.49-0.25-1.093-0.06-1.347,0.431c-0.557,1.081-1.067,2.17-1.517,3.238  C47.379,42.122,47.618,42.708,48.127,42.923z"/><text x="0" y="115" fill="#ffffff" font-size="5px" font-weight="bold" font-family="'Helvetica Neue', Helvetica, Arial-Unicode, Arial, Sans-serif">Created by Houda Mbarki</text><text x="0" y="120" fill="#ffffff" font-size="5px" font-weight="bold" font-family="'Helvetica Neue', Helvetica, Arial-Unicode, Arial, Sans-serif">from the Noun Project</text></svg>