<svg xmlns="http://www.w3.org/2000/svg" xmlns:xlink="http://www.w3.org/1999/xlink" version="1.1" x="0px" y="0px" viewBox="0 0 64 80" style="enable-background:new 0 0 64 64;" xml:space="preserve"><g><path d="M46,43c0-1.858-1.28-3.411-3-3.858v-4.283c1.72-0.447,3-2,3-3.858c0-2.206-1.794-4-4-4c-0.732,0-1.409,0.212-2,0.557V27   c0-0.768-0.29-1.469-0.766-2C39.71,24.469,40,23.768,40,23v-1h1c1.654,0,3-1.346,3-3s-1.346-3-3-3h-1v-1   c0-0.768-0.29-1.469-0.766-2C39.71,12.469,40,11.768,40,11v-1h1c1.654,0,3-1.346,3-3s-1.346-3-3-3h-1V3c0-1.654-1.346-3-3-3H27   c-1.654,0-3,1.346-3,3v1h-1c-1.654,0-3,1.346-3,3s1.346,3,3,3h1v1c0,0.768,0.29,1.469,0.766,2C24.29,13.531,24,14.232,24,15v1h-1   c-1.654,0-3,1.346-3,3s1.346,3,3,3h1v1c0,0.768,0.29,1.469,0.766,2C24.29,25.531,24,26.232,24,27v0.557   C23.409,27.212,22.732,27,22,27c-2.206,0-4,1.794-4,4c0,1.858,1.28,3.411,3,3.858v4.283c-1.72,0.447-3,2-3,3.858   s1.28,3.411,3,3.858v5.283c-1.72,0.447-3,2-3,3.858c0,2.206,1.794,4,4,4c0.732,0,1.409-0.212,2-0.557V61c0,1.654,1.346,3,3,3h10   c1.654,0,3-1.346,3-3v-1.557C40.591,59.788,41.268,60,42,60c2.206,0,4-1.794,4-4c0-1.858-1.28-3.411-3-3.858v-5.283   C44.72,46.411,46,44.858,46,43z M44,43c0,1.103-0.897,2-2,2c-0.606,0-1.143-0.276-1.51-0.703c-0.001-0.002-0.003-0.004-0.004-0.005   C40.187,43.942,40,43.494,40,43s0.187-0.942,0.486-1.292c0.001-0.001,0.003-0.003,0.004-0.005C40.857,41.276,41.394,41,42,41   C43.103,41,44,41.897,44,43z M40,52.557V51c0-0.768-0.29-1.469-0.766-2C39.71,48.469,40,47.768,40,47v-0.557   c0.31,0.182,0.644,0.322,1,0.415v5.283C40.644,52.234,40.31,52.375,40,52.557z M36,55c0-0.553-0.448-1-1-1c-0.552,0-1,0.447-1,1h-1   c0-0.553-0.448-1-1-1c-0.552,0-1,0.447-1,1h-1c0-0.553-0.448-1-1-1c-0.552,0-1,0.447-1,1h-2.142   c-0.031-0.12-0.068-0.238-0.11-0.354C25.899,54.472,26,54.25,26,54v-3c0-0.552,0.449-1,1-1h6c0.552,0,1-0.447,1-1s-0.448-1-1-1h-6   c-0.551,0-1-0.448-1-1v-2c0-0.25-0.101-0.472-0.252-0.646c0.042-0.115,0.079-0.233,0.11-0.354H28c0,0.553,0.448,1,1,1   c0.552,0,1-0.447,1-1h1c0,0.553,0.448,1,1,1c0.552,0,1-0.447,1-1h1c0,0.553,0.448,1,1,1c0.552,0,1-0.447,1-1h2.142   c0.031,0.12,0.068,0.238,0.11,0.354C38.101,44.528,38,44.75,38,45v2c0,0.552-0.449,1-1,1c-0.552,0-1,0.447-1,1s0.448,1,1,1   c0.551,0,1,0.448,1,1v3c0,0.25,0.101,0.472,0.252,0.646c-0.042,0.115-0.079,0.233-0.11,0.354H36z M24,46.443V47   c0,0.768,0.29,1.469,0.766,2C24.29,49.531,24,50.232,24,51v1.557c-0.311-0.182-0.644-0.322-1-0.415v-5.283   C23.356,46.766,23.689,46.625,24,46.443z M24,34.443V35c0,0.768,0.29,1.469,0.766,2C24.29,37.531,24,38.232,24,39v0.557   c-0.311-0.182-0.644-0.322-1-0.415v-4.283C23.356,34.766,23.689,34.625,24,34.443z M28,32c0,0.553,0.448,1,1,1c0.552,0,1-0.447,1-1   h1c0,0.553,0.448,1,1,1c0.552,0,1-0.447,1-1h1c0,0.553,0.448,1,1,1c0.552,0,1-0.447,1-1h2.142c0.031,0.12,0.068,0.238,0.11,0.354   C38.101,32.528,38,32.75,38,33v2c0,0.552-0.449,1-1,1c-0.552,0-1,0.447-1,1s0.448,1,1,1c0.551,0,1,0.448,1,1v2   c0,0.25,0.101,0.472,0.252,0.646c-0.042,0.115-0.079,0.233-0.11,0.354H36c0-0.553-0.448-1-1-1c-0.552,0-1,0.447-1,1h-1   c0-0.553-0.448-1-1-1c-0.552,0-1,0.447-1,1h-1c0-0.553-0.448-1-1-1c-0.552,0-1,0.447-1,1h-2.142   c-0.031-0.12-0.068-0.238-0.11-0.354C25.899,41.472,26,41.25,26,41v-2c0-0.552,0.449-1,1-1h6c0.552,0,1-0.447,1-1s-0.448-1-1-1h-6   c-0.551,0-1-0.448-1-1v-2c0-0.25-0.101-0.472-0.252-0.646c0.042-0.115,0.079-0.233,0.11-0.354H28z M40,39.557V39   c0-0.768-0.29-1.469-0.766-2C39.71,36.469,40,35.768,40,35v-0.557c0.31,0.182,0.644,0.322,1,0.415v4.283   C40.644,39.234,40.31,39.375,40,39.557z M44,31c0,1.103-0.897,2-2,2c-0.606,0-1.143-0.276-1.51-0.703   c-0.001-0.002-0.003-0.004-0.004-0.005C40.187,31.942,40,31.494,40,31s0.187-0.942,0.486-1.292   c0.001-0.001,0.003-0.003,0.004-0.005C40.857,29.276,41.394,29,42,29C43.103,29,44,29.897,44,31z M23,20c-0.551,0-1-0.448-1-1   s0.449-1,1-1h2c0.552,0,1-0.447,1-1v-2c0-0.552,0.449-1,1-1h6c0.552,0,1-0.447,1-1s-0.448-1-1-1h-6c-0.551,0-1-0.448-1-1V9   c0-0.553-0.448-1-1-1h-2c-0.551,0-1-0.448-1-1s0.449-1,1-1h2c0.552,0,1-0.447,1-1V3c0-0.552,0.449-1,1-1h10c0.551,0,1,0.448,1,1v2   c0,0.553,0.448,1,1,1h2c0.551,0,1,0.448,1,1s-0.449,1-1,1h-2c-0.552,0-1,0.447-1,1v2c0,0.552-0.449,1-1,1c-0.552,0-1,0.447-1,1   s0.448,1,1,1c0.551,0,1,0.448,1,1v2c0,0.553,0.448,1,1,1h2c0.551,0,1,0.448,1,1s-0.449,1-1,1h-2c-0.552,0-1,0.447-1,1v2   c0,0.552-0.449,1-1,1c-0.552,0-1,0.447-1,1s0.448,1,1,1c0.551,0,1,0.448,1,1v2c0,0.25,0.101,0.472,0.252,0.646   c-0.042,0.115-0.079,0.233-0.11,0.354H36c0-0.553-0.448-1-1-1c-0.552,0-1,0.447-1,1h-1c0-0.553-0.448-1-1-1c-0.552,0-1,0.447-1,1   h-1c0-0.553-0.448-1-1-1c-0.552,0-1,0.447-1,1h-2.142c-0.031-0.12-0.068-0.238-0.11-0.354C25.899,29.472,26,29.25,26,29v-2   c0-0.552,0.449-1,1-1h6c0.552,0,1-0.447,1-1s-0.448-1-1-1h-6c-0.551,0-1-0.448-1-1v-2c0-0.553-0.448-1-1-1H23z M20,31   c0-1.103,0.897-2,2-2c0.606,0,1.143,0.276,1.51,0.703c0.001,0.002,0.003,0.004,0.004,0.005C23.812,30.058,24,30.506,24,31   s-0.188,0.942-0.486,1.292c-0.001,0.001-0.003,0.003-0.004,0.005C23.143,32.724,22.606,33,22,33C20.897,33,20,32.103,20,31z M20,43   c0-1.103,0.897-2,2-2c0.606,0,1.143,0.276,1.51,0.703c0.001,0.002,0.003,0.004,0.004,0.005C23.812,42.058,24,42.506,24,43   s-0.188,0.942-0.486,1.292c-0.001,0.001-0.003,0.003-0.004,0.005C23.143,44.724,22.606,45,22,45C20.897,45,20,44.103,20,43z M20,56   c0-1.103,0.897-2,2-2c0.606,0,1.143,0.276,1.51,0.703c0.001,0.002,0.003,0.004,0.004,0.005C23.812,55.058,24,55.506,24,56   s-0.188,0.942-0.486,1.292c-0.001,0.001-0.003,0.003-0.004,0.005C23.143,57.724,22.606,58,22,58C20.897,58,20,57.103,20,56z M38,61   c0,0.552-0.449,1-1,1H27c-0.551,0-1-0.448-1-1v-3c0-0.25-0.101-0.472-0.252-0.646c0.042-0.115,0.079-0.233,0.11-0.354H28   c0,0.553,0.448,1,1,1c0.552,0,1-0.447,1-1h1c0,0.553,0.448,1,1,1c0.552,0,1-0.447,1-1h1c0,0.553,0.448,1,1,1c0.552,0,1-0.447,1-1   h2.142c0.031,0.12,0.068,0.238,0.11,0.354C38.101,57.528,38,57.75,38,58V61z M44,56c0,1.103-0.897,2-2,2   c-0.606,0-1.143-0.276-1.51-0.703c-0.001-0.002-0.003-0.004-0.004-0.005C40.187,56.942,40,56.494,40,56s0.187-0.942,0.486-1.292   c0.001-0.001,0.003-0.003,0.004-0.005C40.857,54.276,41.394,54,42,54C43.103,54,44,54.897,44,56z"/><path d="M42,32c0.26,0,0.52-0.11,0.71-0.29C42.89,31.52,43,31.26,43,31c0-0.271-0.11-0.521-0.29-0.71c-0.38-0.37-1.05-0.37-1.42,0   C41.11,30.479,41,30.74,41,31s0.11,0.52,0.29,0.71C41.48,31.89,41.74,32,42,32z"/><path d="M22.71,31.71C22.89,31.52,23,31.26,23,31c0-0.271-0.11-0.521-0.29-0.71c-0.37-0.37-1.04-0.37-1.42,0   C21.11,30.479,21,30.74,21,31s0.11,0.52,0.29,0.71C21.48,31.89,21.74,32,22,32C22.26,32,22.52,31.89,22.71,31.71z"/><path d="M41,43c0,0.26,0.11,0.52,0.29,0.71C41.48,43.89,41.74,44,42,44c0.26,0,0.52-0.11,0.71-0.29C42.89,43.52,43,43.27,43,43   c0-0.271-0.11-0.521-0.29-0.71c-0.37-0.37-1.04-0.37-1.42,0C41.11,42.479,41,42.74,41,43z"/><path d="M22.71,43.71C22.89,43.52,23,43.26,23,43s-0.11-0.521-0.29-0.71c-0.38-0.37-1.06-0.36-1.42,0C21.11,42.479,21,42.729,21,43   c0,0.27,0.11,0.52,0.29,0.71C21.48,43.89,21.74,44,22,44C22.26,44,22.52,43.89,22.71,43.71z"/><path d="M41,56c0,0.26,0.11,0.52,0.29,0.71C41.48,56.89,41.74,57,42,57c0.26,0,0.52-0.11,0.71-0.29C42.89,56.52,43,56.27,43,56   c0-0.26-0.11-0.521-0.29-0.71c-0.37-0.37-1.04-0.37-1.42,0C41.11,55.479,41,55.74,41,56z"/><path d="M21.29,55.29C21.11,55.479,21,55.729,21,56c0,0.27,0.11,0.52,0.29,0.71C21.48,56.89,21.74,57,22,57   c0.27,0,0.52-0.11,0.71-0.29C22.89,56.52,23,56.26,23,56s-0.11-0.521-0.29-0.71C22.34,54.92,21.66,54.92,21.29,55.29z"/></g><text x="0" y="79" fill="#ffffff" font-size="5px" font-weight="bold" font-family="'Helvetica Neue', Helvetica, Arial-Unicode, Arial, Sans-serif">Created by Berkah Icon</text><text x="0" y="84" fill="#ffffff" font-size="5px" font-weight="bold" font-family="'Helvetica Neue', Helvetica, Arial-Unicode, Arial, Sans-serif">from the Noun Project</text></svg>