<svg xmlns="http://www.w3.org/2000/svg" viewBox="0 0 48 60" x="0px" y="0px">
  <title>spinal cord</title>
  <defs>
    <!-- Gradiente principal médula: azul-teal degradando a amarillo nervioso -->
    <linearGradient id="cordGrad" x1="0%" y1="0%" x2="100%" y2="100%">
      <stop offset="0%"   stop-color="#4f8ef7"/>
      <stop offset="35%"  stop-color="#7c3aed"/>
      <stop offset="65%"  stop-color="#06b6d4"/>
      <stop offset="100%" stop-color="#f59e0b"/>
    </linearGradient>
    <!-- Brillo interior -->
    <radialGradient id="shineGrad" cx="35%" cy="30%" r="55%">
      <stop offset="0%"  stop-color="#ffffff" stop-opacity="0.25"/>
      <stop offset="100%" stop-color="#000000" stop-opacity="0"/>
    </radialGradient>
  </defs>

  <!-- Sombra / profundidad -->
  <g transform="translate(1,1)" opacity="0.18">
    <path fill="#0a1628" d="M47,23c-3.72,0-1.17-11-8-11a10.63,10.63,0,0,0-4.36,1,18.73,18.73,0,0,0-5.77-1.87,8.78,8.78,0,0,0-4.87.6,8.78,8.78,0,0,0-4.87-.6A18.73,18.73,0,0,0,13.36,13,10.63,10.63,0,0,0,9,12C2.17,12,4.72,23,1,23a1,1,0,0,0,0,2c3.73,0,1.29,9,8,9a9.48,9.48,0,0,0,3.91-1,32,32,0,0,0,7.52,3.74,4.08,4.08,0,0,0,3.12-.18c.57-.28.34-.28.9,0a4.07,4.07,0,0,0,3.12.18A32,32,0,0,0,35.09,33,9.48,9.48,0,0,0,39,34c6.67,0,4.29-9,8-9A1,1,0,0,0,47,23Z"/>
  </g>

  <!-- Icono principal con gradiente multicolor -->
  <g data-name="spinal cord">
    <path fill="url(#cordGrad)" d="M47,23c-3.72,0-1.17-11-8-11a10.63,10.63,0,0,0-4.36,1,18.73,18.73,0,0,0-5.77-1.87,8.78,8.78,0,0,0-4.87.6,8.78,8.78,0,0,0-4.87-.6A18.73,18.73,0,0,0,13.36,13,10.63,10.63,0,0,0,9,12C2.17,12,4.72,23,1,23a1,1,0,0,0,0,2c3.73,0,1.29,9,8,9a9.48,9.48,0,0,0,3.91-1,32,32,0,0,0,7.52,3.74,4.08,4.08,0,0,0,3.12-.18c.57-.28.34-.28.9,0a4.07,4.07,0,0,0,3.12.18A32,32,0,0,0,35.09,33,9.48,9.48,0,0,0,39,34c6.67,0,4.29-9,8-9A1,1,0,0,0,47,23ZM31.11,25.45C32.24,27.71,31.65,29,29,29c-1.54,0-2.65-2-5-2s-3.43,2-5,2c-2.45,0-3.33-1.11-2.1-3.55,1.35-2.72.29-7.33-3.75-10a13,13,0,0,1,1.73-1,8.69,8.69,0,0,1,4.17,4.86c2.09,6.28,7.83,6.21,9.9,0a8.69,8.69,0,0,1,4.17-4.86,13,13,0,0,1,1.73,1C30.81,18.12,29.75,22.73,31.11,25.45ZM23.56,13.71c1.23.6,1.69-1.71,7.23-.12a10.56,10.56,0,0,0-3.74,5.09c-1.44,4.33-4.6,4.52-6.1,0a10.56,10.56,0,0,0-3.74-5.09C19.52,12.93,21.4,12.66,23.56,13.71Zm-20,10.22c3.2-3.38.59-11.62,7.68-9.59-.1.08-.58.47-.67.58A11.34,11.34,0,0,0,7,23.55c0,3.33,1.77,6,4.09,8.06C4.6,33.81,6.57,26.66,3.59,23.93Zm23.32,11A2.28,2.28,0,0,1,25,34.63V33a1,1,0,0,0-2,0c0,1.91.11,1.58-.33,1.79a2.11,2.11,0,0,1-1.58.1C18.26,33.9,9,30.15,9,23.55a9.33,9.33,0,0,1,2.55-6.76c3.59,2.06,4.5,5.86,3.56,7.76-2,4,.24,6.45,3.89,6.45,2.37,0,3.43-2,5-2s2.65,2,5,2c3.74,0,5.87-2.51,3.9-6.45-.95-1.89-.06-5.69,3.55-7.76A9.33,9.33,0,0,1,39,23.55C39,30.15,29.74,33.9,26.91,34.89Zm10-3.28C39.23,29.55,41,26.89,41,23.55a11.31,11.31,0,0,0-4.27-9.21c4.13-1.18,4.81.58,5.75,4.76.4,1.76.84,3.68,1.93,4.83C41.41,26.68,43.42,33.81,36.91,31.61Z"/>
    <!-- Brillo encima -->
    <path fill="url(#shineGrad)" d="M47,23c-3.72,0-1.17-11-8-11a10.63,10.63,0,0,0-4.36,1,18.73,18.73,0,0,0-5.77-1.87,8.78,8.78,0,0,0-4.87.6,8.78,8.78,0,0,0-4.87-.6A18.73,18.73,0,0,0,13.36,13,10.63,10.63,0,0,0,9,12C2.17,12,4.72,23,1,23a1,1,0,0,0,0,2c3.73,0,1.29,9,8,9a9.48,9.48,0,0,0,3.91-1,32,32,0,0,0,7.52,3.74,4.08,4.08,0,0,0,3.12-.18c.57-.28.34-.28.9,0a4.07,4.07,0,0,0,3.12.18A32,32,0,0,0,35.09,33,9.48,9.48,0,0,0,39,34c6.67,0,4.29-9,8-9A1,1,0,0,0,47,23Z"/>
  </g>

  <!-- Atribución invisible -->
  <text x="0" y="63" fill="#ffffff" font-size="5px" font-weight="bold" font-family="'Helvetica Neue', Helvetica, Arial-Unicode, Arial, Sans-serif">Created by tezar tantular</text>
  <text x="0" y="68" fill="#ffffff" font-size="5px" font-weight="bold" font-family="'Helvetica Neue', Helvetica, Arial-Unicode, Arial, Sans-serif">from the Noun Project</text>
</svg>